<svg width="224" height="27" viewBox="0 0 224 27" fill="none" xmlns="http://www.w3.org/2000/svg">
<path d="M5.18426 6.62758C4.98704 6.59279 4.78605 6.5752 4.58691 6.5752C2.92374 6.5752 1.50682 7.76531 1.2177 9.40499L0.0523712 16.0141C-0.275511 17.8734 0.970483 19.6528 2.82978 19.9806C3.02701 20.0154 3.22799 20.033 3.42713 20.033C5.09017 20.033 6.50723 18.8428 6.79635 17.2032L7.96174 10.5941C8.28949 8.73478 7.04356 6.95546 5.18426 6.62758Z" fill="url(#paint0_linear_262_2087)"/>
<path d="M14.7355 3.5934C14.5382 3.55861 14.3373 3.54102 14.1381 3.54102C12.475 3.54102 11.058 4.73113 10.769 6.37081L8.53337 19.0495C8.37457 19.9501 8.57604 20.8588 9.10059 21.608C9.62515 22.3571 10.4101 22.8572 11.3108 23.016C11.508 23.0508 11.709 23.0684 11.9081 23.0684C13.5712 23.0684 14.9882 21.8782 15.2774 20.2386L17.5129 7.55997C17.8408 5.7006 16.5948 3.92129 14.7355 3.5934Z" fill="url(#paint1_linear_262_2087)"/>
<path d="M26.4961 1.46054C25.9715 0.71137 25.1865 0.211329 24.286 0.0524559C24.0887 0.017668 23.8876 0 23.6884 0C22.0254 0 20.6084 1.19011 20.3193 2.82987L16.8351 22.5896C16.6763 23.4903 16.8778 24.3989 17.4024 25.1481C17.927 25.8972 18.7119 26.3973 19.6125 26.5562C19.8097 26.591 20.0107 26.6087 20.21 26.6087C21.8731 26.6087 23.29 25.4185 23.5791 23.7788L27.0633 4.01902C27.2221 3.11837 27.0207 2.20971 26.4961 1.46054Z" fill="url(#paint2_linear_262_2087)"/>
<path d="M32.2322 6.62758C32.035 6.59279 31.834 6.5752 31.6348 6.5752C29.9717 6.5752 28.5547 7.76531 28.2656 9.40499L27.1002 16.0141C26.7723 17.8734 28.0183 19.6528 29.8776 19.9806C30.0749 20.0154 30.2758 20.033 30.475 20.033C32.138 20.033 33.5551 18.8428 33.8442 17.2032L35.0096 10.5941C35.3375 8.73478 34.0916 6.95546 32.2322 6.62758Z" fill="url(#paint3_linear_262_2087)"/>
<path d="M58.2488 3.08092C58.5756 3.08092 58.8291 3.1869 59.0094 3.39885C59.1897 3.61079 59.2798 3.89403 59.2798 4.24855V21.7514C59.2798 22.106 59.184 22.3892 58.9925 22.6012C58.8047 22.8131 58.5399 22.9191 58.1981 22.9191C57.8525 22.9191 57.5539 22.7611 57.3022 22.4451L46.079 7.04624V21.7514C46.079 22.106 45.9851 22.3892 45.7973 22.6012C45.6057 22.8131 45.3484 22.9191 45.0254 22.9191C44.7024 22.9191 44.4507 22.8131 44.2704 22.6012C44.0901 22.3892 44 22.106 44 21.7514V4.24855C44 3.89403 44.0939 3.61079 44.2817 3.39885C44.4695 3.1869 44.7362 3.08092 45.0818 3.08092C45.4423 3.08092 45.7485 3.23892 46.0001 3.55491L57.1952 18.9538V4.24855C57.1952 3.89403 57.2891 3.61079 57.4769 3.39885C57.6685 3.1869 57.9258 3.08092 58.2488 3.08092ZM65.0898 22.9191C64.748 22.9191 64.4775 22.8131 64.2785 22.6012C64.0831 22.3892 63.9855 22.106 63.9855 21.7514V4.32948C63.9855 3.99807 64.0888 3.73025 64.2954 3.52601C64.5019 3.32177 64.7761 3.21965 65.1179 3.21965H71.5296C73.5316 3.21965 75.0866 3.71869 76.1947 4.71676C77.3027 5.71484 77.8568 7.13102 77.8568 8.96532C77.8568 10.7958 77.2971 12.2197 76.1778 13.237C75.0622 14.2543 73.5128 14.763 71.5296 14.763H66.1997V21.7514C66.1997 22.106 66.1002 22.3892 65.9011 22.6012C65.7058 22.8131 65.4353 22.9191 65.0898 22.9191ZM66.1997 12.8728H71.3099C74.2133 12.8728 75.6651 11.5703 75.6651 8.96532C75.6651 6.39114 74.2133 5.10405 71.3099 5.10405H66.1997V12.8728ZM87.5137 23C86.1615 23 84.8675 22.7919 83.6318 22.3757C82.396 21.9595 81.4082 21.4008 80.6682 20.6994C80.3978 20.4412 80.2626 20.1175 80.2626 19.7283C80.2626 19.4701 80.3358 19.2428 80.4823 19.0462C80.625 18.8536 80.7959 18.7572 80.995 18.7572C81.2279 18.7572 81.4795 18.8593 81.75 19.0636C83.4289 20.3931 85.3408 21.0578 87.4855 21.0578C89.0368 21.0578 90.2256 20.7534 91.052 20.1445C91.8821 19.5356 92.2971 18.6667 92.2971 17.5376C92.2971 16.8902 92.0999 16.368 91.7055 15.9711C91.3074 15.5703 90.7834 15.2505 90.1336 15.0116C89.4838 14.7726 88.6105 14.5222 87.5137 14.2601C86.0338 13.9094 84.8206 13.5395 83.874 13.1503C82.9275 12.7649 82.1613 12.21 81.5753 11.4855C80.9894 10.7649 80.6964 9.82274 80.6964 8.65896C80.6964 7.54913 80.9894 6.56455 81.5753 5.7052C82.1613 4.842 82.982 4.17534 84.0374 3.7052C85.0929 3.23507 86.2967 3 87.6489 3C88.911 3 90.0866 3.19846 91.1759 3.59538C92.2652 3.99229 93.1798 4.56069 93.9197 5.30058C94.209 5.5973 94.3536 5.921 94.3536 6.27168C94.3536 6.52987 94.2822 6.75723 94.1395 6.95376C93.993 7.14644 93.8202 7.24278 93.6211 7.24278C93.4258 7.24278 93.1648 7.14066 92.838 6.93642C91.9553 6.19653 91.1346 5.67823 90.3759 5.3815C89.6209 5.08863 88.7119 4.9422 87.6489 4.9422C86.1502 4.9422 84.9859 5.26012 84.1558 5.89595C83.3294 6.53565 82.9162 7.42775 82.9162 8.57225C82.9162 9.55491 83.2806 10.2909 84.0093 10.7803C84.7379 11.2697 85.861 11.6994 87.3785 12.0694C89.0161 12.4778 90.3045 12.8536 91.2435 13.1965C92.1825 13.5356 92.9619 14.0482 93.5817 14.7341C94.2052 15.42 94.517 16.3353 94.517 17.4798C94.517 18.5703 94.224 19.5318 93.638 20.3642C93.0521 21.1965 92.2276 21.8439 91.1646 22.3064C90.0979 22.7688 88.8809 23 87.5137 23ZM113.177 23C111.374 23 109.814 22.5992 108.495 21.7977C107.181 20.9923 106.167 19.8362 105.453 18.3295C104.743 16.8189 104.388 15.0385 104.388 12.9884C104.388 10.9538 104.743 9.18112 105.453 7.67052C106.167 6.16378 107.181 5.00771 108.495 4.20231C109.814 3.40077 111.374 3 113.177 3C114.383 3 115.523 3.19846 116.597 3.59538C117.671 3.99229 118.605 4.56069 119.397 5.30058C119.687 5.57804 119.831 5.90173 119.831 6.27168C119.831 6.52987 119.758 6.75723 119.611 6.95376C119.469 7.14644 119.298 7.24278 119.099 7.24278C118.881 7.24278 118.62 7.14066 118.316 6.93642C117.395 6.19653 116.562 5.67823 115.814 5.3815C115.067 5.08863 114.205 4.9422 113.228 4.9422C111.14 4.9422 109.532 5.63969 108.405 7.03468C107.278 8.42967 106.715 10.4143 106.715 12.9884C106.715 15.578 107.278 17.5703 108.405 18.9653C109.532 20.3603 111.14 21.0578 113.228 21.0578C114.186 21.0578 115.042 20.9114 115.797 20.6185C116.556 20.3218 117.395 19.8035 118.316 19.0636C118.62 18.8593 118.881 18.7572 119.099 18.7572C119.298 18.7572 119.469 18.8497 119.611 19.0347C119.758 19.2197 119.831 19.4509 119.831 19.7283C119.831 20.0983 119.687 20.422 119.397 20.6994C118.605 21.4393 117.671 22.0077 116.597 22.4046C115.523 22.8015 114.383 23 113.177 23ZM128.184 8.93642C131.486 8.93642 133.137 10.711 133.137 14.2601V21.8092C133.137 22.1407 133.041 22.4085 132.85 22.6127C132.662 22.817 132.404 22.9191 132.078 22.9191C131.755 22.9191 131.494 22.817 131.294 22.6127C131.095 22.4085 130.996 22.1407 130.996 21.8092V20.4798C130.654 21.2736 130.132 21.8882 129.43 22.3237C128.727 22.7592 127.916 22.9769 126.996 22.9769C126.147 22.9769 125.367 22.7996 124.657 22.4451C123.944 22.0944 123.38 21.605 122.967 20.9769C122.55 20.3487 122.342 19.6551 122.342 18.896C122.342 17.8786 122.595 17.0886 123.102 16.526C123.606 15.9595 124.434 15.5511 125.587 15.3006C126.744 15.054 128.35 14.9306 130.404 14.9306H130.996V14.0116C130.996 12.9017 130.776 12.0886 130.337 11.5723C129.893 11.052 129.176 10.7919 128.184 10.7919C126.96 10.7919 125.717 11.1349 124.455 11.8208C123.966 12.1368 123.623 12.2948 123.424 12.2948C123.209 12.2948 123.029 12.21 122.883 12.0405C122.74 11.8748 122.669 11.6628 122.669 11.4046C122.669 11.1464 122.746 10.9191 122.9 10.7225C123.054 10.5299 123.301 10.3314 123.643 10.1272C124.274 9.75723 124.99 9.46628 125.79 9.25434C126.594 9.04239 127.392 8.93642 128.184 8.93642ZM127.294 21.1965C128.376 21.1965 129.264 20.8227 129.959 20.0751C130.65 19.3276 130.996 18.3603 130.996 17.1734V16.3699H130.511C128.926 16.3699 127.719 16.4393 126.889 16.578C126.058 16.7168 125.467 16.948 125.114 17.2717C124.764 17.5954 124.59 18.0713 124.59 18.6994C124.59 19.4239 124.847 20.0212 125.362 20.4913C125.873 20.9615 126.517 21.1965 127.294 21.1965ZM138.247 22.9191C137.92 22.9191 137.654 22.8227 137.447 22.6301C137.24 22.4335 137.137 22.1599 137.137 21.8092V4.19075C137.137 3.84008 137.24 3.56647 137.447 3.36994C137.654 3.17726 137.92 3.08092 138.247 3.08092C138.551 3.08092 138.809 3.17726 139.019 3.36994C139.225 3.56647 139.329 3.84008 139.329 4.19075V21.8092C139.329 22.1599 139.225 22.4335 139.019 22.6301C138.809 22.8227 138.551 22.9191 138.247 22.9191ZM148.848 22.9769C147.62 22.9769 146.533 22.6898 145.586 22.1156C144.64 21.5414 143.911 20.7264 143.4 19.6705C142.885 18.6185 142.628 17.3988 142.628 16.0116C142.628 14.6243 142.893 13.3931 143.423 12.3179C143.956 11.2466 144.7 10.4143 145.654 9.82081C146.611 9.23121 147.712 8.93642 148.955 8.93642C149.639 8.93642 150.319 9.03275 150.995 9.22543C151.671 9.42197 152.263 9.7052 152.77 10.0751C153.093 10.2948 153.322 10.5106 153.457 10.7225C153.592 10.9383 153.66 11.1753 153.66 11.4335C153.66 11.6917 153.592 11.9037 153.457 12.0694C153.322 12.2351 153.147 12.3179 152.933 12.3179C152.805 12.3179 152.67 12.2813 152.527 12.2081C152.381 12.1349 152.259 12.0617 152.161 11.9884C152.06 11.9152 151.992 11.869 151.958 11.8497C151.489 11.5337 151.042 11.2832 150.617 11.0983C150.193 10.9133 149.675 10.8208 149.062 10.8208C147.748 10.8208 146.724 11.2794 145.992 12.1965C145.263 13.1098 144.899 14.3815 144.899 16.0116C144.899 17.6378 145.263 18.896 145.992 19.7861C146.724 20.6724 147.748 21.1156 149.062 21.1156C149.675 21.1156 150.202 21.0231 150.646 20.8382C151.089 20.6532 151.536 20.4027 151.986 20.0867C152.182 19.9595 152.37 19.8497 152.55 19.7572C152.73 19.6647 152.884 19.6185 153.012 19.6185C153.211 19.6185 153.378 19.7013 153.513 19.8671C153.649 20.0328 153.716 20.2447 153.716 20.5029C153.716 20.7457 153.652 20.9634 153.525 21.1561C153.401 21.3526 153.166 21.5703 152.82 21.8092C152.317 22.1599 151.709 22.4412 150.995 22.6532C150.285 22.869 149.569 22.9769 148.848 22.9769ZM166.372 8.98844C166.713 8.98844 166.98 9.09056 167.172 9.2948C167.359 9.49904 167.453 9.76686 167.453 10.0983V21.8381C167.453 22.1503 167.359 22.4085 167.172 22.6127C166.98 22.817 166.713 22.9191 166.372 22.9191C166.049 22.9191 165.791 22.8227 165.6 22.6301C165.412 22.4335 165.318 22.1792 165.318 21.8671V20.4798C164.901 21.2929 164.319 21.9114 163.571 22.3353C162.824 22.763 161.981 22.9769 161.042 22.9769C159.475 22.9769 158.296 22.5279 157.503 21.6301C156.707 20.7322 156.309 19.4046 156.309 17.6474V10.0983C156.309 9.76686 156.409 9.49904 156.608 9.2948C156.807 9.09056 157.077 8.98844 157.419 8.98844C157.761 8.98844 158.027 9.09056 158.219 9.2948C158.407 9.49904 158.501 9.76686 158.501 10.0983V17.5896C158.501 18.7919 158.735 19.6763 159.205 20.2428C159.674 20.8054 160.414 21.0867 161.425 21.0867C162.578 21.0867 163.506 20.7033 164.208 19.9364C164.91 19.1696 165.262 18.1561 165.262 16.896V10.0983C165.262 9.76686 165.361 9.49904 165.56 9.2948C165.759 9.09056 166.03 8.98844 166.372 8.98844ZM172.647 22.9191C172.32 22.9191 172.053 22.8227 171.847 22.6301C171.64 22.4335 171.537 22.1599 171.537 21.8092V4.19075C171.537 3.84008 171.64 3.56647 171.847 3.36994C172.053 3.17726 172.32 3.08092 172.647 3.08092C172.951 3.08092 173.208 3.17726 173.419 3.36994C173.625 3.56647 173.729 3.84008 173.729 4.19075V21.8092C173.729 22.1599 173.625 22.4335 173.419 22.6301C173.208 22.8227 172.951 22.9191 172.647 22.9191ZM183.192 8.93642C186.493 8.93642 188.144 10.711 188.144 14.2601V21.8092C188.144 22.1407 188.048 22.4085 187.857 22.6127C187.669 22.817 187.412 22.9191 187.085 22.9191C186.762 22.9191 186.501 22.817 186.302 22.6127C186.103 22.4085 186.003 22.1407 186.003 21.8092V20.4798C185.661 21.2736 185.139 21.8882 184.437 22.3237C183.735 22.7592 182.923 22.9769 182.003 22.9769C181.154 22.9769 180.375 22.7996 179.665 22.4451C178.951 22.0944 178.388 21.605 177.975 20.9769C177.558 20.3487 177.349 19.6551 177.349 18.896C177.349 17.8786 177.603 17.0886 178.11 16.526C178.613 15.9595 179.441 15.5511 180.594 15.3006C181.751 15.054 183.357 14.9306 185.412 14.9306H186.003V14.0116C186.003 12.9017 185.784 12.0886 185.344 11.5723C184.901 11.052 184.183 10.7919 183.192 10.7919C181.967 10.7919 180.724 11.1349 179.462 11.8208C178.974 12.1368 178.63 12.2948 178.431 12.2948C178.217 12.2948 178.037 12.21 177.89 12.0405C177.747 11.8748 177.676 11.6628 177.676 11.4046C177.676 11.1464 177.753 10.9191 177.907 10.7225C178.061 10.5299 178.309 10.3314 178.651 10.1272C179.282 9.75723 179.997 9.46628 180.797 9.25434C181.601 9.04239 182.399 8.93642 183.192 8.93642ZM182.302 21.1965C183.383 21.1965 184.272 20.8227 184.967 20.0751C185.658 19.3276 186.003 18.3603 186.003 17.1734V16.3699H185.519C183.934 16.3699 182.726 16.4393 181.896 16.578C181.066 16.7168 180.474 16.948 180.121 17.2717C179.772 17.5954 179.597 18.0713 179.597 18.6994C179.597 19.4239 179.855 20.0212 180.369 20.4913C180.88 20.9615 181.524 21.1965 182.302 21.1965ZM198.229 21.1445C198.86 21.1985 199.176 21.4933 199.176 22.0289C199.176 22.3449 199.063 22.5819 198.838 22.7399C198.612 22.8979 198.274 22.9576 197.824 22.9191L197.091 22.8613C195.649 22.7534 194.586 22.3102 193.902 21.5318C193.219 20.7534 192.877 19.578 192.877 18.0058V11.0462H191.063C190.755 11.0462 190.516 10.9672 190.347 10.8092C190.174 10.6513 190.088 10.4432 190.088 10.185C190.088 9.90751 190.174 9.68593 190.347 9.52023C190.516 9.35067 190.755 9.2659 191.063 9.2659H192.877V6.13295C192.877 5.78227 192.975 5.50867 193.17 5.31214C193.369 5.11946 193.639 5.02312 193.981 5.02312C194.308 5.02312 194.571 5.11946 194.77 5.31214C194.965 5.50867 195.063 5.78227 195.063 6.13295V9.2659H198.066C198.355 9.2659 198.586 9.35067 198.759 9.52023C198.928 9.68593 199.013 9.90751 199.013 10.185C199.013 10.4432 198.928 10.6513 198.759 10.8092C198.586 10.9672 198.355 11.0462 198.066 11.0462H195.063V18.1214C195.063 19.1387 195.266 19.8728 195.671 20.3237C196.077 20.7784 196.686 21.0328 197.497 21.0867L198.229 21.1445ZM206.805 22.9769C205.558 22.9769 204.461 22.6898 203.514 22.1156C202.568 21.5414 201.839 20.7225 201.328 19.659C200.814 18.5954 200.556 17.3603 200.556 15.9538C200.556 14.5472 200.814 13.3121 201.328 12.2486C201.839 11.185 202.568 10.368 203.514 9.79769C204.461 9.22351 205.558 8.93642 206.805 8.93642C208.048 8.93642 209.146 9.22351 210.101 9.79769C211.058 10.368 211.793 11.185 212.303 12.2486C212.818 13.3121 213.075 14.5472 213.075 15.9538C213.075 17.3603 212.818 18.5954 212.303 19.659C211.793 20.7225 211.058 21.5414 210.101 22.1156C209.146 22.6898 208.048 22.9769 206.805 22.9769ZM206.805 21.1156C208.1 21.1156 209.096 20.6763 209.791 19.7977C210.486 18.9191 210.833 17.6378 210.833 15.9538C210.833 14.3083 210.482 13.0366 209.779 12.1387C209.073 11.2408 208.082 10.7919 206.805 10.7919C205.524 10.7919 204.532 11.2408 203.83 12.1387C203.124 13.0366 202.771 14.3083 202.771 15.9538C202.771 17.6185 203.118 18.896 203.813 19.7861C204.508 20.6724 205.505 21.1156 206.805 21.1156ZM222.868 8.98844C223.622 8.93449 224 9.25048 224 9.93642C224 10.2293 223.919 10.4644 223.758 10.6416C223.596 10.8189 223.316 10.9249 222.918 10.9595L222.107 11.0462C220.901 11.1541 220.005 11.5934 219.419 12.3642C218.833 13.131 218.54 14.0328 218.54 15.0694V21.8092C218.54 22.1792 218.441 22.4566 218.242 22.6416C218.043 22.8266 217.782 22.9191 217.459 22.9191C217.132 22.9191 216.865 22.8227 216.659 22.6301C216.452 22.4335 216.349 22.1599 216.349 21.8092V10.0983C216.349 9.74759 216.458 9.47592 216.676 9.28324C216.89 9.08671 217.151 8.98844 217.459 8.98844C217.748 8.98844 217.99 9.08671 218.186 9.28324C218.385 9.47592 218.484 9.73988 218.484 10.0751V11.6243C218.864 10.8112 219.401 10.1927 220.096 9.76879C220.79 9.34104 221.589 9.09056 222.49 9.01734L222.868 8.98844Z" fill="#4D4D4D"/>
<defs>
<linearGradient id="paint0_linear_262_2087" x1="8.01408" y1="13.7421" x2="-0.00401758" y2="13.6291" gradientUnits="userSpaceOnUse">
<stop stop-color="#2558DC"/>
<stop offset="1" stop-color="#00B4EF"/>
</linearGradient>
<linearGradient id="paint1_linear_262_2087" x1="17.5653" y1="13.9402" x2="8.47521" y2="13.8402" gradientUnits="userSpaceOnUse">
<stop stop-color="#2558DC"/>
<stop offset="1" stop-color="#00B4EF"/>
</linearGradient>
<linearGradient id="paint2_linear_262_2087" x1="27.1162" y1="14.1703" x2="16.7759" y2="14.0753" gradientUnits="userSpaceOnUse">
<stop stop-color="#2558DC"/>
<stop offset="1" stop-color="#00B4EF"/>
</linearGradient>
<linearGradient id="paint3_linear_262_2087" x1="35.062" y1="13.7421" x2="27.0438" y2="13.6291" gradientUnits="userSpaceOnUse">
<stop stop-color="#2558DC"/>
<stop offset="1" stop-color="#00B4EF"/>
</linearGradient>
</defs>
</svg>
